<?xml version="1.0" standalone="no"?>
<!DOCTYPE svg PUBLIC "-//W3C//DTD SVG 20010904//EN"
 "http://www.w3.org/TR/2001/REC-SVG-20010904/DTD/svg10.dtd">
<svg version="1.0" xmlns="http://www.w3.org/2000/svg"
 width="1024.000000pt" height="1024.000000pt" viewBox="0 0 1024.000000 1024.000000"
 preserveAspectRatio="xMidYMid meet">
<metadata>
Created by potrace 1.11, written by Peter Selinger 2001-2013
</metadata>
<g transform="translate(0.000000,1024.000000) scale(0.100000,-0.100000)"
fill="#000000" stroke="none">
<path d="M7297 7064 c-1 -1 -47 -4 -102 -8 -171 -11 -270 -31 -440 -87 -358
-118 -673 -345 -898 -646 l-62 -83 -100 0 c-55 -1 -190 -2 -300 -3 l-200 -2
-3 -168 -2 -167 -43 -1 c-137 -2 -613 -8 -1087 -14 -300 -3 -657 -8 -795 -10
-137 -2 -504 -6 -815 -10 -311 -4 -609 -8 -662 -9 l-97 -1 -137 -130 c-183
-173 -167 -157 -364 -345 -95 -91 -194 -185 -219 -208 -25 -24 -78 -75 -118
-113 l-72 -68 2 -82 c1 -78 2 -82 31 -105 27 -20 675 -473 922 -643 l81 -56
134 2 c74 1 216 2 316 3 l181 2 34 36 c18 21 58 66 88 102 30 36 64 74 75 86
11 11 31 34 45 51 14 17 48 57 76 89 29 33 61 70 72 84 l21 25 58 -56 c32 -31
116 -112 187 -180 71 -68 152 -146 179 -174 l50 -50 131 0 c72 0 142 1 156 3
20 3 48 38 130 158 l104 153 153 -153 153 -153 243 4 c133 1 369 4 525 6 l282
4 1 -31 c0 -17 2 -40 4 -51 23 -121 38 -191 45 -199 5 -4 28 -8 52 -8 23 0
150 1 282 2 131 1 239 0 240 -2 48 -68 122 -154 201 -233 272 -273 608 -449
985 -516 136 -24 391 -32 530 -15 110 12 326 61 385 86 11 4 47 18 80 31 404
152 769 486 971 888 104 208 156 388 190 656 9 76 1 634 -10 685 -3 14 -9 45
-12 70 -3 25 -8 53 -10 62 -3 10 -8 30 -10 45 -34 189 -162 480 -292 663 -319
448 -807 729 -1347 775 -72 7 -194 12 -198 9z m1014 -1499 c208 -53 392 -222
453 -416 16 -54 16 -60 0 -115 -62 -216 -257 -392 -485 -440 -214 -45 -434 21
-589 176 -97 97 -169 229 -170 310 0 63 67 195 145 285 155 180 413 260 646
200z"/>
</g>
</svg>
